<?xml version="1.0" encoding="UTF-8"?>
<svg width="56px" height="27px" viewBox="0 0 56 27" version="1.1" xmlns="http://www.w3.org/2000/svg" xmlns:xlink="http://www.w3.org/1999/xlink">
    <!-- Generator: Sketch 55 (78076) - https://sketchapp.com -->
    <title>Artboard</title>
    <desc>Created with Sketch.</desc>
    <g id="Artboard" stroke="none" stroke-width="1" fill="none" fill-rule="evenodd">
        <g id="Key/spell" transform="translate(1.000000, 1.000000)">
            <rect id="Rectangle" stroke="#E5E5E5" fill="#FFFFFF" x="-0.5" y="-0.5" width="26" height="26" rx="6"></rect>
            <path d="M11.547619,14.4047619 L11.547619,15.498713 C11.547619,16.0478363 11.3492083,16.5186596 10.952381,16.9111969 C10.5555536,17.3037343 10.0782954,17.5 9.52059202,17.5 C8.96288867,17.5 8.48670296,17.3026618 8.09202059,16.9079794 C7.69733822,16.513297 7.5,16.0349663 7.5,15.472973 C7.5,14.9238497 7.69733822,14.4498089 8.09202059,14.0508366 C8.48670296,13.6518642 8.95645373,13.452381 9.501287,13.452381 L10.5952381,13.452381 L10.5952381,11.547619 L9.501287,11.547619 C8.95645373,11.547619 8.48670296,11.3481358 8.09202059,10.9491634 C7.69733822,10.5501911 7.5,10.0740053 7.5,9.52059202 C7.5,8.96288867 7.69733822,8.48670296 8.09202059,8.09202059 C8.48670296,7.69733822 8.96288867,7.5 9.52059202,7.5 C10.0782954,7.5 10.5555536,7.69626573 10.952381,8.08880309 C11.3492083,8.48134044 11.547619,8.95216371 11.547619,9.501287 L11.547619,10.5952381 L13.452381,10.5952381 L13.452381,9.501287 C13.452381,8.95216371 13.6507917,8.48134044 14.047619,8.08880309 C14.4444464,7.69626573 14.9217046,7.5 15.479408,7.5 C16.0414014,7.5 16.5186596,7.69733822 16.9111969,8.09202059 C17.3037343,8.48670296 17.5,8.96288867 17.5,9.52059202 C17.5,10.0740053 17.3037343,10.5501911 16.9111969,10.9491634 C16.5186596,11.3481358 16.0478363,11.547619 15.498713,11.547619 L14.4047619,11.547619 L14.4047619,13.452381 L15.498713,13.452381 C16.0478363,13.452381 16.5186596,13.6518642 16.9111969,14.0508366 C17.3037343,14.4498089 17.5,14.9238497 17.5,15.472973 C17.5,16.0349663 17.3037343,16.513297 16.9111969,16.9079794 C16.5186596,17.3026618 16.0414014,17.5 15.479408,17.5 C14.9217046,17.5 14.4444464,17.3037343 14.047619,16.9111969 C13.6507917,16.5186596 13.452381,16.0478363 13.452381,15.498713 L13.452381,14.4047619 L11.547619,14.4047619 L11.547619,14.4047619 Z M11.547619,13.452381 L13.452381,13.452381 L13.452381,11.547619 L11.547619,11.547619 L11.547619,13.452381 L11.547619,13.452381 Z M10.5952381,10.5952381 L10.5952381,9.52059202 C10.5952381,9.22458024 10.490134,8.97254501 10.2799228,8.76447876 C10.0697115,8.55641252 9.8166038,8.45238095 9.52059202,8.45238095 C9.22887027,8.45238095 8.97790753,8.55641252 8.76769627,8.76447876 C8.55748501,8.97254501 8.45238095,9.22458024 8.45238095,9.52059202 C8.45238095,9.8166038 8.55748501,10.0697115 8.76769627,10.2799228 C8.97790753,10.490134 9.23101525,10.5952381 9.52702703,10.5952381 L10.5952381,10.5952381 L10.5952381,10.5952381 Z M10.5952381,14.4047619 L9.52702703,14.4047619 C9.23101525,14.4047619 8.97790753,14.509866 8.76769627,14.7200772 C8.55748501,14.9302885 8.45238095,15.1812512 8.45238095,15.472973 C8.45238095,15.7689847 8.55748501,16.0220925 8.76769627,16.2323037 C8.97790753,16.442515 9.23101525,16.547619 9.52702703,16.547619 C9.81874878,16.547619 10.0697115,16.442515 10.2799228,16.2323037 C10.490134,16.0220925 10.5952381,15.7711297 10.5952381,15.479408 L10.5952381,14.4047619 L10.5952381,14.4047619 Z M14.4047619,10.5952381 L15.479408,10.5952381 C15.7711297,10.5952381 16.0220925,10.490134 16.2323037,10.2799228 C16.442515,10.0697115 16.547619,9.8166038 16.547619,9.52059202 C16.547619,9.22458024 16.4435875,8.97254501 16.2355212,8.76447876 C16.027455,8.55641252 15.7754198,8.45238095 15.479408,8.45238095 C15.1833962,8.45238095 14.9302885,8.55641252 14.7200772,8.76447876 C14.509866,8.97254501 14.4047619,9.22458024 14.4047619,9.52059202 L14.4047619,10.5952381 L14.4047619,10.5952381 Z M14.4047619,14.4047619 L14.4047619,15.479408 C14.4047619,15.7711297 14.509866,16.0220925 14.7200772,16.2323037 C14.9302885,16.442515 15.1833962,16.547619 15.479408,16.547619 C15.7754198,16.547619 16.027455,16.442515 16.2355212,16.2323037 C16.4435875,16.0220925 16.547619,15.7689847 16.547619,15.472973 C16.547619,15.1812512 16.442515,14.9302885 16.2323037,14.7200772 C16.0220925,14.509866 15.7711297,14.4047619 15.479408,14.4047619 L14.4047619,14.4047619 L14.4047619,14.4047619 Z" id="⌘-2" fill="#2E3030"></path>
        </g>
        <g id="Key/spell" transform="translate(30.000000, 1.000000)">
            <rect id="Rectangle" stroke="#E5E5E5" fill="#FFFFFF" x="-0.5" y="-0.5" width="26" height="26" rx="6"></rect>
            <polygon id="F" fill="#262626" fill-rule="nonzero" points="9.64038086 7.67529297 16.1086426 7.67529297 16.1086426 8.81787109 10.9035645 8.81787109 10.9035645 11.6489258 15.4802246 11.6489258 15.4802246 12.7597656 10.9035645 12.7597656 10.9035645 17 9.64038086 17"></polygon>
        </g>
    </g>
</svg>