<?xml version="1.0" encoding="UTF-8"?>
<svg width="1000px" height="222px" viewBox="0 0 1000 222" version="1.1" xmlns="http://www.w3.org/2000/svg" xmlns:xlink="http://www.w3.org/1999/xlink">
    <title>readme-preview</title>
    <g id="readme-preview" stroke="none" stroke-width="1" fill="none" fill-rule="evenodd">
        <path d="M73.0707282,-2.95214488e-15 L926.929272,2.95214488e-15 C952.337556,-1.71528119e-15 961.551214,2.64552992 970.840103,7.61328206 C980.128991,12.5810342 987.418966,19.8710086 992.386718,29.1598974 C997.35447,38.4487863 1000,47.6624441 1000,73.0707282 L1000,148.929272 C1000,174.337556 997.35447,183.551214 992.386718,192.840103 C987.418966,202.128991 980.128991,209.418966 970.840103,214.386718 C961.551214,219.35447 952.337556,222 926.929272,222 L73.0707282,222 C47.6624441,222 38.4487863,219.35447 29.1598974,214.386718 C19.8710086,209.418966 12.5810342,202.128991 7.61328206,192.840103 C2.64552992,183.551214 -9.64066207e-16,174.337556 1.65923997e-15,148.929272 L1.96809658e-15,73.0707282 C-1.14352079e-15,47.6624441 2.64552992,38.4487863 7.61328206,29.1598974 C12.5810342,19.8710086 19.8710086,12.5810342 29.1598974,7.61328206 C38.4487863,2.64552992 47.6624441,1.71528119e-15 73.0707282,-2.95214488e-15 Z" id="background" fill="#000000"></path>
        <path d="M238.595703,148.191406 C243.478516,148.191406 248.068359,147.257568 252.365234,145.389893 C256.662109,143.522217 260.446289,140.952637 263.717773,137.681152 C266.989258,134.409668 269.552734,130.631592 271.408203,126.346924 C273.263672,122.062256 274.191406,117.478516 274.191406,112.595703 C274.191406,107.712891 273.263672,103.12915 271.408203,98.8444824 C269.552734,94.5598145 266.983154,90.7756348 263.699463,87.4919434 C260.415771,84.208252 256.625488,81.6386719 252.328613,79.7832031 C248.031738,77.9277344 243.441895,77 238.559082,77 C233.725098,77 229.159668,77.9277344 224.862793,79.7832031 C220.565918,81.6386719 216.775635,84.208252 213.491943,87.4919434 C210.208252,90.7756348 207.638672,94.5598145 205.783203,98.8444824 C203.927734,103.12915 203,107.712891 203,112.595703 C203,117.478516 203.933838,122.062256 205.801514,126.346924 C207.669189,130.631592 210.23877,134.409668 213.510254,137.681152 C216.781738,140.952637 220.565918,143.522217 224.862793,145.389893 C229.159668,147.257568 233.737305,148.191406 238.595703,148.191406 Z M248.959473,131.602051 C248.471191,131.602051 248.037842,131.443359 247.659424,131.125977 C247.281006,130.808594 246.688965,130.271484 245.883301,129.514648 L238.705566,122.446777 C238.60791,122.349121 238.498047,122.349121 238.375977,122.446777 L231.234863,129.514648 C230.453613,130.271484 229.861572,130.808594 229.45874,131.125977 C229.055908,131.443359 228.610352,131.602051 228.12207,131.602051 C227.487305,131.602051 226.974609,131.382324 226.583984,130.942871 C226.193359,130.503418 225.998047,129.893066 225.998047,129.111816 L225.998047,99.2290039 C225.998047,97.4467773 226.455811,96.1040039 227.371338,95.2006836 C228.286865,94.2973633 229.611328,93.8457031 231.344727,93.8457031 L245.773438,93.8457031 C247.506836,93.8457031 248.831299,94.2973633 249.746826,95.2006836 C250.662354,96.1040039 251.120117,97.4467773 251.120117,99.2290039 L251.120117,129.111816 C251.120117,129.893066 250.924805,130.503418 250.53418,130.942871 C250.143555,131.382324 249.618652,131.602051 248.959473,131.602051 Z M352.157715,138.26709 C355.380371,138.26709 357.6875,136.106445 357.6875,133.066895 C357.6875,131.968262 357.504395,130.979492 356.991699,129.55127 L342.489746,90.2202148 C340.915039,85.8989258 338.351562,83.9946289 334.030273,83.9946289 C329.855469,83.9946289 327.255371,85.972168 325.717285,90.2568359 L311.288574,129.55127 C310.8125,130.90625 310.556152,132.151367 310.556152,133.066895 C310.556152,136.25293 312.716797,138.26709 316.15918,138.26709 C319.088867,138.26709 320.736816,136.802246 321.762207,133.286621 L324.54541,125.046875 L343.625,125.046875 L346.408203,133.396484 C347.396973,136.838867 349.044922,138.26709 352.157715,138.26709 Z M341.061523,116.477539 L326.962402,116.477539 L333.810547,94.8344727 L334.066895,94.8344727 L341.061523,116.477539 Z M402.54834,138.340332 C406.24707,138.340332 408.297852,136.58252 409.396484,132.700684 L417.306641,105.308105 C417.709473,103.916504 417.892578,103.037598 417.892578,102.048828 C417.892578,99.3754883 415.805176,97.5078125 412.838867,97.5078125 C410.202148,97.5078125 408.480957,99.1191406 407.89502,101.975586 L402.035645,127.427246 L401.815918,127.427246 L395.700195,102.415039 C395.004395,99.2290039 392.916992,97.5078125 389.730957,97.5078125 C386.47168,97.5078125 384.384277,99.2290039 383.688477,102.415039 L377.609375,127.427246 L377.389648,127.427246 L371.566895,102.048828 C370.944336,99.1191406 369.223145,97.5078125 366.549805,97.5078125 C363.546875,97.5078125 361.38623,99.4121094 361.38623,102.085449 C361.38623,103.11084 361.569336,103.989746 361.972168,105.381348 L369.882324,132.737305 C371.017578,136.619141 372.958496,138.340332 376.657227,138.340332 C380.46582,138.340332 382.589844,136.619141 383.505371,132.737305 L389.437988,109.8125 L389.657715,109.8125 L395.626953,132.664062 C396.54248,136.655762 398.629883,138.340332 402.54834,138.340332 Z M440.780762,138.413574 C448.361328,138.413574 454.44043,135.557129 457.040527,130.723145 C457.516602,129.844238 457.772949,128.965332 457.772949,128.123047 C457.772949,125.669434 455.905273,124.20459 453.598145,124.20459 C452.206543,124.20459 451.254395,124.607422 450.119141,125.779297 C447.226074,129.185059 444.662598,130.503418 440.744141,130.503418 C435.324219,130.503418 431.808594,126.694824 431.808594,120.87207 L431.808594,120.395996 L454.220703,120.395996 C457.187012,120.395996 458.871582,118.711426 458.871582,115.745117 C458.871582,105.088379 451.400879,97.4711914 440.268066,97.4711914 C428.65918,97.4711914 421.29834,105.491211 421.29834,118.125488 C421.29834,130.833008 428.512695,138.413574 440.780762,138.413574 Z M448.581055,113.84082 L431.918457,113.84082 C432.284668,108.82373 435.69043,105.381348 440.37793,105.381348 C445.06543,105.381348 448.361328,108.713867 448.581055,113.84082 Z M480.368164,138.413574 C490.731934,138.413574 497.726562,133.359863 497.726562,125.55957 C497.726562,119.700195 494.28418,116.624023 485.93457,114.866211 L479.452637,113.474609 C475.53418,112.632324 473.996094,111.277344 473.996094,109.226562 C473.996094,106.699707 476.522949,104.978516 480.148438,104.978516 C483.993652,104.978516 486.117676,106.80957 487.985352,109.189941 C488.9375,110.325195 490.475586,110.837891 491.867188,110.837891 C494.61377,110.837891 495.96875,109.336426 495.96875,107.175781 C495.96875,106.663086 495.858887,106.150391 495.712402,105.601074 C494.430664,101.169922 488.461426,97.4711914 480.331543,97.4711914 C470.150879,97.4711914 463.668945,102.305176 463.668945,109.8125 C463.668945,115.635254 467.550781,119.553711 475.241211,121.20166 L481.833008,122.593262 C485.678223,123.435547 487.033203,124.570801 487.033203,126.694824 C487.033203,129.294922 484.506348,130.90625 480.624512,130.90625 C476.55957,130.90625 474.142578,129.661133 472.055176,126.914551 C470.590332,125.266602 469.125488,124.497559 467.404297,124.497559 C464.914062,124.497559 463.083008,126.145508 463.083008,128.599121 C463.083008,129.185059 463.229492,129.880859 463.48584,130.57666 C465.353516,135.190918 471.359375,138.413574 480.368164,138.413574 Z M521.017578,138.413574 C532.882812,138.413574 540.463379,130.833008 540.463379,117.905762 C540.463379,105.161621 532.772949,97.4711914 521.017578,97.4711914 C509.262207,97.4711914 501.571777,105.198242 501.571777,117.905762 C501.571777,130.796387 509.152344,138.413574 521.017578,138.413574 Z M521.017578,130.24707 C515.744141,130.24707 512.411621,125.815918 512.411621,117.942383 C512.411621,110.14209 515.817383,105.637695 521.017578,105.637695 C526.217773,105.637695 529.586914,110.14209 529.586914,117.942383 C529.586914,125.815918 526.254395,130.24707 521.017578,130.24707 Z M598.544434,138.340332 C601.730469,138.340332 603.927734,136.399414 603.927734,132.773926 L603.927734,110.764648 C603.927734,102.854492 598.76416,97.5810547 591.07373,97.5810547 C585.324219,97.5810547 580.636719,100.693848 578.878906,105.637695 L578.65918,105.637695 C577.34082,100.510742 573.385742,97.5810547 567.709473,97.5810547 C562.362793,97.5810547 558.151367,100.693848 556.503418,105.417969 L556.283691,105.417969 L556.283691,102.964355 C556.283691,99.3754883 554.159668,97.5078125 551.120117,97.5078125 C548.080566,97.5078125 545.956543,99.3754883 545.956543,102.964355 L545.956543,132.773926 C545.956543,136.399414 548.117188,138.340332 551.303223,138.340332 C554.452637,138.340332 556.649902,136.399414 556.649902,132.773926 L556.649902,113.877441 C556.649902,109.48291 559.396484,106.406738 563.461426,106.406738 C567.416504,106.406738 569.796875,108.896973 569.796875,113.108398 L569.796875,132.773926 C569.796875,136.399414 571.774414,138.340332 574.923828,138.340332 C578.109863,138.340332 580.087402,136.399414 580.087402,132.773926 L580.087402,113.730957 C580.087402,109.373047 582.760742,106.406738 586.825684,106.406738 C590.963867,106.406738 593.234375,108.896973 593.234375,113.437988 L593.234375,132.773926 C593.234375,136.399414 595.39502,138.340332 598.544434,138.340332 Z M628.756836,138.413574 C636.337402,138.413574 642.416504,135.557129 645.016602,130.723145 C645.492676,129.844238 645.749023,128.965332 645.749023,128.123047 C645.749023,125.669434 643.881348,124.20459 641.574219,124.20459 C640.182617,124.20459 639.230469,124.607422 638.095215,125.779297 C635.202148,129.185059 632.638672,130.503418 628.720215,130.503418 C623.300293,130.503418 619.784668,126.694824 619.784668,120.87207 L619.784668,120.395996 L642.196777,120.395996 C645.163086,120.395996 646.847656,118.711426 646.847656,115.745117 C646.847656,105.088379 639.376953,97.4711914 628.244141,97.4711914 C616.635254,97.4711914 609.274414,105.491211 609.274414,118.125488 C609.274414,130.833008 616.48877,138.413574 628.756836,138.413574 Z M636.557129,113.84082 L619.894531,113.84082 C620.260742,108.82373 623.666504,105.381348 628.354004,105.381348 C633.041504,105.381348 636.337402,108.713867 636.557129,113.84082 Z M687.533691,93.4428711 C690.756348,93.4428711 693.246582,90.9892578 693.246582,87.9130859 C693.246582,84.800293 690.756348,82.3833008 687.533691,82.3833008 C684.311035,82.3833008 681.820801,84.800293 681.820801,87.9130859 C681.820801,90.9892578 684.311035,93.4428711 687.533691,93.4428711 Z M687.533691,138.340332 C690.82959,138.340332 692.880371,136.25293 692.880371,132.773926 L692.880371,103.11084 C692.880371,99.6318359 690.82959,97.5078125 687.533691,97.5078125 C684.201172,97.5078125 682.187012,99.6318359 682.187012,103.11084 L682.187012,132.773926 C682.187012,136.25293 684.201172,138.340332 687.533691,138.340332 Z M724.740723,138.450195 C740.37793,138.450195 750.229004,127.976562 750.229004,111.16748 C750.229004,94.3217773 740.37793,83.8115234 724.740723,83.8115234 C709.066895,83.8115234 699.252441,94.3217773 699.252441,111.16748 C699.252441,127.976562 709.066895,138.450195 724.740723,138.450195 Z M724.740723,129.22168 C716.061523,129.22168 710.531738,122.227051 710.531738,111.16748 C710.531738,100.071289 716.098145,93.0400391 724.740723,93.0400391 C733.383301,93.0400391 738.913086,100.071289 738.913086,111.16748 C738.913086,122.227051 733.383301,129.22168 724.740723,129.22168 Z M776.669434,138.450195 C789.853027,138.450195 797.946289,131.931641 797.946289,121.604492 C797.946289,113.584473 793.112305,109.080078 781.90625,106.846191 L776.339844,105.710938 C770.077637,104.46582 767.550781,102.45166 767.550781,99.1923828 C767.550781,95.3105469 771.17627,92.7470703 776.632812,92.7470703 C781.173828,92.7470703 784.57959,94.3950195 786.337402,98.3867188 C787.58252,100.657227 789.120605,101.645996 791.61084,101.645996 C794.430664,101.645996 796.334961,99.8515625 796.334961,97.2148438 C796.334961,96.2626953 796.188477,95.4936523 795.932129,94.7612305 C793.588379,87.8764648 786.300781,83.8115234 776.632812,83.8115234 C764.877441,83.8115234 756.45459,90.2202148 756.45459,99.8881836 C756.45459,107.761719 761.618164,112.81543 772.165039,114.902832 L777.768066,116.001465 C784.396484,117.356445 786.886719,119.333984 786.886719,122.812988 C786.886719,126.694824 782.858398,129.55127 776.925781,129.55127 C771.87207,129.55127 767.733887,127.720215 766.012695,123.691895 C764.694336,121.348145 763.192871,120.469238 760.922363,120.469238 C758.065918,120.469238 756.051758,122.410156 756.051758,125.339844 C756.051758,126.328613 756.271484,127.354004 756.637695,128.306152 C758.761719,134.092285 765.756348,138.450195 776.669434,138.450195 Z" id="label" fill="#FFFFFF" fill-rule="nonzero"></path>
    </g>
</svg>